<svg width="24" height="24" viewBox="0 0 24 24" fill="none" xmlns="http://www.w3.org/2000/svg">
<path d="M1.8999 21.5999C1.89987 21.8761 2.1237 22.1 2.39985 22.1C2.67599 22.1 2.89987 21.8762 2.8999 21.6L1.8999 21.5999ZM2.40031 17.9996L2.90031 17.9996L2.40031 17.9996ZM12.5999 14.9C12.876 14.9 13.0999 14.6761 13.0999 14.4C13.0999 14.1238 12.876 13.9 12.5999 13.9V14.9ZM21.5999 16.1C21.876 16.1 22.0999 15.8761 22.0999 15.6C22.0999 15.3238 21.876 15.1 21.5999 15.1V16.1ZM16.1999 15.1C15.9238 15.1 15.6999 15.3238 15.6999 15.6C15.6999 15.8761 15.9238 16.1 16.1999 16.1V15.1ZM18.3999 18.2999C18.3999 18.576 18.6238 18.7999 18.8999 18.7999C19.176 18.7999 19.3999 18.576 19.3999 18.2999H18.3999ZM19.3999 12.8999C19.3999 12.6237 19.176 12.3999 18.8999 12.3999C18.6238 12.3999 18.3999 12.6237 18.3999 12.8999H19.3999ZM13.8999 5.99999C13.8999 7.71208 12.512 9.09999 10.7999 9.09999V10.1C13.0643 10.1 14.8999 8.26436 14.8999 5.99999H13.8999ZM10.7999 9.09999C9.08782 9.09999 7.6999 7.71208 7.6999 5.99999H6.6999C6.6999 8.26436 8.53553 10.1 10.7999 10.1V9.09999ZM7.6999 5.99999C7.6999 4.28791 9.08782 2.89999 10.7999 2.89999V1.89999C8.53553 1.89999 6.6999 3.73563 6.6999 5.99999H7.6999ZM10.7999 2.89999C12.512 2.89999 13.8999 4.28791 13.8999 5.99999H14.8999C14.8999 3.73563 13.0643 1.89999 10.7999 1.89999V2.89999ZM2.8999 21.6L2.90031 17.9996L1.90031 17.9995L1.8999 21.5999L2.8999 21.6ZM6.00031 13.9C3.73612 13.9 1.90056 15.7353 1.90031 17.9995L2.90031 17.9996C2.9005 16.2877 4.28836 14.9 6.00031 14.9V13.9ZM6.00031 14.9H12.5999V13.9H6.00031V14.9ZM21.5999 15.1H18.8999V16.1H21.5999V15.1ZM18.8999 15.1H16.1999V16.1H18.8999V15.1ZM19.3999 18.2999V15.6H18.3999V18.2999H19.3999ZM19.3999 15.6V12.8999H18.3999V15.6H19.3999Z" fill="#FDFEFF"/>
</svg>
