<svg width="24" height="24" viewBox="0 0 24 24" fill="none" xmlns="http://www.w3.org/2000/svg">
<path d="M1.8999 21.5999C1.89987 21.8761 2.1237 22.1 2.39985 22.1C2.67599 22.1 2.89987 21.8762 2.8999 21.6L1.8999 21.5999ZM2.40031 17.9996L2.90031 17.9996L2.40031 17.9996ZM13.1999 14.9C13.476 14.9 13.6999 14.6761 13.6999 14.4C13.6999 14.1238 13.476 13.9 13.1999 13.9V14.9ZM21.2464 17.7535C21.4416 17.9488 21.7582 17.9488 21.9535 17.7535C22.1487 17.5583 22.1487 17.2417 21.9535 17.0464L21.2464 17.7535ZM18.1351 13.2281C17.9398 13.0328 17.6232 13.0328 17.428 13.2281C17.2327 13.4233 17.2327 13.7399 17.428 13.9352L18.1351 13.2281ZM17.4281 17.0463C17.2328 17.2416 17.2328 17.5582 17.4281 17.7534C17.6233 17.9487 17.9399 17.9487 18.1352 17.7534L17.4281 17.0463ZM21.9536 13.9351C22.1488 13.7398 22.1488 13.4232 21.9536 13.228C21.7583 13.0327 21.4417 13.0327 21.2465 13.228L21.9536 13.9351ZM13.8999 5.99999C13.8999 7.71208 12.512 9.09999 10.7999 9.09999V10.1C13.0643 10.1 14.8999 8.26436 14.8999 5.99999H13.8999ZM10.7999 9.09999C9.08782 9.09999 7.6999 7.71208 7.6999 5.99999H6.6999C6.6999 8.26436 8.53553 10.1 10.7999 10.1V9.09999ZM7.6999 5.99999C7.6999 4.28791 9.08782 2.89999 10.7999 2.89999V1.89999C8.53553 1.89999 6.6999 3.73563 6.6999 5.99999H7.6999ZM10.7999 2.89999C12.512 2.89999 13.8999 4.28791 13.8999 5.99999H14.8999C14.8999 3.73563 13.0643 1.89999 10.7999 1.89999V2.89999ZM2.8999 21.6L2.90031 17.9996L1.90031 17.9995L1.8999 21.5999L2.8999 21.6ZM6.00031 13.9C3.73612 13.9 1.90056 15.7353 1.90031 17.9995L2.90031 17.9996C2.9005 16.2877 4.28836 14.9 6.00031 14.9V13.9ZM6.00031 14.9H13.1999V13.9H6.00031V14.9ZM21.9535 17.0464L20.0443 15.1372L19.3372 15.8444L21.2464 17.7535L21.9535 17.0464ZM20.0443 15.1372L18.1351 13.2281L17.428 13.9352L19.3372 15.8444L20.0443 15.1372ZM18.1352 17.7534L20.0443 15.8444L19.3372 15.1372L17.4281 17.0463L18.1352 17.7534ZM20.0443 15.8444L21.9536 13.9351L21.2465 13.228L19.3372 15.1372L20.0443 15.8444Z" fill="#FDFEFF"/>
</svg>
