<svg width="22" height="22" viewBox="0 0 22 22" fill="none" xmlns="http://www.w3.org/2000/svg">
    <path
        d="M0.899902 20.6003C0.899871 20.8765 1.1237 21.1004 1.39985 21.1004C1.67599 21.1004 1.89987 20.8766 1.8999 20.6004L0.899902 20.6003ZM1.40031 17L1.90031 17L1.40031 17ZM12.1999 13.9004C12.476 13.9004 12.6999 13.6765 12.6999 13.4004C12.6999 13.1242 12.476 12.9004 12.1999 12.9004V13.9004ZM20.2464 16.7539C20.4416 16.9492 20.7582 16.9492 20.9535 16.7539C21.1487 16.5587 21.1487 16.2421 20.9535 16.0468L20.2464 16.7539ZM17.1351 12.2285C16.9398 12.0332 16.6232 12.0332 16.428 12.2285C16.2327 12.4237 16.2327 12.7403 16.428 12.9356L17.1351 12.2285ZM16.4281 16.0467C16.2328 16.242 16.2328 16.5586 16.4281 16.7538C16.6233 16.9491 16.9399 16.9491 17.1352 16.7538L16.4281 16.0467ZM20.9536 12.9355C21.1488 12.7402 21.1488 12.4236 20.9536 12.2284C20.7583 12.0331 20.4417 12.0331 20.2465 12.2284L20.9536 12.9355ZM12.8999 5.00039C12.8999 6.71247 11.512 8.10039 9.7999 8.10039V9.10039C12.0643 9.10039 13.8999 7.26476 13.8999 5.00039H12.8999ZM9.7999 8.10039C8.08782 8.10039 6.6999 6.71247 6.6999 5.00039H5.6999C5.6999 7.26476 7.53553 9.10039 9.7999 9.10039V8.10039ZM6.6999 5.00039C6.6999 3.28831 8.08782 1.90039 9.7999 1.90039V0.900391C7.53553 0.900391 5.6999 2.73602 5.6999 5.00039H6.6999ZM9.7999 1.90039C11.512 1.90039 12.8999 3.28831 12.8999 5.00039H13.8999C13.8999 2.73602 12.0643 0.900391 9.7999 0.900391V1.90039ZM1.8999 20.6004L1.90031 17L0.900307 16.9999L0.899902 20.6003L1.8999 20.6004ZM5.00031 12.9004C2.73612 12.9004 0.900562 14.7357 0.900307 16.9999L1.90031 17C1.9005 15.2881 3.28836 13.9004 5.00031 13.9004V12.9004ZM5.00031 13.9004H12.1999V12.9004H5.00031V13.9004ZM20.9535 16.0468L19.0443 14.1376L18.3372 14.8448L20.2464 16.7539L20.9535 16.0468ZM19.0443 14.1376L17.1351 12.2285L16.428 12.9356L18.3372 14.8448L19.0443 14.1376ZM17.1352 16.7538L19.0443 14.8448L18.3372 14.1376L16.4281 16.0467L17.1352 16.7538ZM19.0443 14.8448L20.9536 12.9355L20.2465 12.2284L18.3372 14.1376L19.0443 14.8448Z"
        fill="#FDFEFF" />
</svg>
    