<svg width="24" height="24" viewBox="0 0 24 24" fill="none" xmlns="http://www.w3.org/2000/svg">
<path fill-rule="evenodd" clip-rule="evenodd" d="M3.47364 18.3021C3.08114 18.6906 3.08114 19.3206 3.47364 19.7091C3.86614 20.0977 4.50251 20.0977 4.89501 19.7091L7.17254 17.4546C7.20868 17.4764 7.24498 17.4982 7.28145 17.5198L8.93727 15.8807C8.89942 15.8607 8.8616 15.8405 8.82382 15.82L10.6104 14.0515C10.6762 14.1024 10.745 14.1499 10.8164 14.1935L13.9225 11.1188C13.8785 11.0481 13.8305 10.98 13.779 10.9148L15.6689 9.04405C15.7049 9.06592 15.7408 9.088 15.7767 9.11029L17.4082 7.49534C17.3734 7.47217 17.3385 7.44906 17.3034 7.42603L20.0588 4.69839C20.4513 4.30986 20.4513 3.67991 20.0588 3.29137C19.6663 2.90283 19.03 2.90284 18.6375 3.29137L15.4839 6.41308C14.3996 5.91995 13.2185 5.5866 12 5.5866C9.7021 5.5866 7.5371 6.77213 5.9039 7.97903C4.24175 9.20732 2.96057 10.5855 2.40488 11.2202C1.86504 11.8368 1.86504 12.7438 2.40488 13.3603C2.91478 13.9427 4.0355 15.1511 5.50089 16.2953L3.47364 18.3021ZM9.75173 12.0874C9.84922 11.0152 10.7118 10.1613 11.7949 10.0648L13.7493 8.13016C13.16 7.93324 12.5722 7.82117 12 7.82117C10.4394 7.82117 8.76279 8.65491 7.25427 9.76968C6.05504 10.6559 5.06532 11.6422 4.46533 12.2903C5.04102 12.9121 5.97553 13.8454 7.10964 14.7028L9.75173 12.0874ZM11.0047 18.922C10.2709 18.8174 10.0611 17.9284 10.5879 17.4069L10.9406 17.0578C11.1644 16.8362 11.4793 16.7402 11.7939 16.7547C11.8628 16.7578 11.9315 16.7594 12 16.7594C13.5606 16.7594 15.2372 15.9257 16.7457 14.8109C17.945 13.9247 18.9347 12.9384 19.5347 12.2903C19.2489 11.9817 18.8748 11.5963 18.4317 11.1816C18.0021 10.7794 17.9728 10.0965 18.3911 9.68253L18.5591 9.51621C18.9287 9.15036 19.5185 9.12732 19.8999 9.48087C20.6743 10.1988 21.2637 10.8417 21.5951 11.2202C22.135 11.8368 22.135 12.7438 21.5951 13.3603C21.0394 13.9951 19.7582 15.3733 18.0961 16.6016C16.4629 17.8085 14.2979 18.994 12 18.994C11.665 18.994 11.3328 18.9688 11.0047 18.922Z" fill="#878A8F"/>
</svg>
