<svg width="24" height="24" viewBox="0 0 24 24" fill="none" xmlns="http://www.w3.org/2000/svg">
<path fill-rule="evenodd" clip-rule="evenodd" d="M7.05917 14.0298C5.81461 13.1315 4.79555 12.1351 4.1956 11.5008C4.79555 10.8664 5.81461 9.87 7.05917 8.97176C8.59967 7.85994 10.3472 7 11.9988 7C13.6504 7 15.398 7.85994 16.9385 8.97176C18.183 9.87 19.2021 10.8664 19.8021 11.5008C19.2021 12.1351 18.183 13.1315 16.9385 14.0298C15.398 15.1416 13.6504 16.0015 11.9988 16.0015C10.3472 16.0015 8.59967 15.1416 7.05917 14.0298ZM11.9988 5C9.71439 5 7.54321 6.15593 5.88872 7.35002C4.21013 8.5615 2.92049 9.91726 2.37598 10.524C1.87467 11.0826 1.87467 11.9189 2.37598 12.4775C2.92049 13.0843 4.21013 14.44 5.88872 15.6515C7.54321 16.8456 9.71439 18.0015 11.9988 18.0015C14.2833 18.0015 16.4544 16.8456 18.1089 15.6515C19.7875 14.44 21.0772 13.0843 21.6217 12.4775C22.123 11.9189 22.123 11.0826 21.6217 10.524C21.0772 9.91726 19.7875 8.5615 18.1089 7.35002C16.4544 6.15593 14.2833 5 11.9988 5ZM11.999 13.7011C13.262 13.7011 14.2859 12.716 14.2859 11.5008C14.2859 10.2856 13.262 9.30046 11.999 9.30046C10.7359 9.30046 9.712 10.2856 9.712 11.5008C9.712 12.716 10.7359 13.7011 11.999 13.7011Z" fill="#878A8F"/>
</svg>
